<?xml version="1.0" standalone="no"?>
<!DOCTYPE svg PUBLIC "-//W3C//DTD SVG 20010904//EN"
 "http://www.w3.org/TR/2001/REC-SVG-20010904/DTD/svg10.dtd">
<svg version="1.0" xmlns="http://www.w3.org/2000/svg"
 width="512.000000pt" height="512.000000pt" viewBox="0 0 512.000000 512.000000"
 preserveAspectRatio="xMidYMid meet">
<metadata>
Created by potrace 1.14, written by Peter Selinger 2001-2017
</metadata>
<g transform="translate(0.000000,512.000000) scale(0.100000,-0.100000)"
fill="#000000" stroke="none">
<path d="M0 2560 l0 -2560 2560 0 2560 0 0 2560 0 2560 -2560 0 -2560 0 0
-2560z m1343 207 c370 -114 608 -395 703 -827 27 -123 28 -576 1 -698 -91
-411 -325 -699 -662 -811 -136 -45 -211 -51 -626 -51 l-379 0 0 1211 0 1210
438 -3 437 -4 88 -27z m1307 -715 c0 -11 150 -965 153 -976 2 -5 59 213 128
485 l125 494 175 3 175 2 118 -467 c66 -258 122 -476 126 -487 3 -10 30 126
60 310 29 181 64 399 79 484 l26 155 238 3 c187 2 237 0 237 -10 0 -7 -80
-371 -179 -808 -98 -437 -182 -810 -186 -828 l-7 -32 -209 0 c-208 0 -210 0
-218 23 -4 12 -64 232 -132 489 -68 257 -127 461 -130 455 -6 -11 -259 -950
-259 -961 0 -9 -418 -7 -424 2 -5 8 -376 1652 -376 1665 0 4 108 7 240 7 132
0 240 -4 240 -8z"/>
<path d="M900 1589 l0 -762 138 6 c105 4 150 10 194 26 143 55 236 182 284
390 21 91 30 467 15 586 -32 242 -112 390 -248 462 -76 41 -141 53 -273 53
l-110 0 0 -761z"/>
</g>
</svg>
