<?xml version="1.0" standalone="no"?>
<!DOCTYPE svg PUBLIC "-//W3C//DTD SVG 20010904//EN"
 "http://www.w3.org/TR/2001/REC-SVG-20010904/DTD/svg10.dtd">
<svg version="1.0" xmlns="http://www.w3.org/2000/svg"
 width="512.000000pt" height="512.000000pt" viewBox="0 0 512.000000 512.000000"
 preserveAspectRatio="xMidYMid meet">
<metadata>
Created by potrace 1.14, written by Peter Selinger 2001-2017
</metadata>
<g transform="translate(0.000000,512.000000) scale(0.100000,-0.100000)"
fill="#000000" stroke="none">
<path d="M0 2560 l0 -2560 2560 0 2560 0 0 2560 0 2560 -2560 0 -2560 0 0
-2560z m1195 29 c453 -56 781 -355 887 -809 25 -108 35 -387 19 -521 -27 -234
-110 -430 -255 -603 -107 -127 -314 -252 -501 -303 l-100 -27 -462 -4 -463 -3
0 1140 0 1141 393 0 c224 0 430 -5 482 -11z m1589 -986 c44 -269 82 -491 86
-495 3 -4 64 214 136 485 l129 492 187 3 c171 2 187 1 192 -15 3 -10 60 -226
127 -480 67 -255 125 -463 129 -463 3 0 41 206 84 458 43 251 80 467 83 480
l5 22 255 0 c204 0 254 -3 250 -13 -2 -7 -89 -370 -191 -807 -103 -437 -192
-812 -197 -832 l-10 -38 -224 0 -224 0 -9 33 c-159 574 -267 955 -270 953 -1
-2 -65 -224 -140 -492 l-137 -489 -225 -3 -226 -2 -193 822 c-107 453 -196
833 -199 846 l-4 22 254 0 254 0 78 -487z"/>
<path d="M870 1454 l0 -717 143 6 c207 8 297 42 388 145 84 96 123 215 141
430 13 158 1 369 -27 477 -39 152 -129 274 -240 326 -80 38 -145 49 -286 49
l-119 0 0 -716z"/>
</g>
</svg>
